<svg version="1.0" xmlns="http://www.w3.org/2000/svg" width="773.333" height="773.333" viewBox="0 0 580 580">
  <path d="M287.3 1.3c-1.3.5-2.3 1.4-2.3 1.9 0 .4-.9.8-1.9.8-1.1 0-2.1.4-2.3.8-.1.4-3.9 2.8-8.3 5.1-4.4 2.4-8.2 4.8-8.3 5.3-.2.4-.7.6-1.2.3-.4-.3-1.3.2-2 1s-1.6 1.5-2 1.5c-1.2 0-31.4 17.1-32.1 18.2-.3.5-.9.9-1.3.8-.6-.1-12.3 6.3-25.1 13.8-2.2 1.3-5.2 2.8-6.7 3.5-1.6.6-2.8 1.5-2.8 1.9 0 .4-.4.8-.9.8-.7 0-15.4 8-20.1 11-.8.5-3.5 2-6 3.2-2.5 1.3-4.7 2.6-5 2.9-.3.3-4.1 2.5-8.5 4.9-4.4 2.3-8.4 4.6-9 5-1 .8-7 4.1-16.5 9.3-3 1.6-6.2 3.5-7 4.1-.8.6-3.3 2-5.5 3.1s-4.2 2.2-4.5 2.6c-.3.3-1.8 1.2-3.5 2.1-3.6 1.8-9.5 5.1-23 12.8-10.7 6.2-15.6 8.9-22 12.3-2.2 1.2-4.2 2.4-4.5 2.7-.5.5-2.3 1.5-13 7.3-3 1.6-6.1 3.4-6.7 3.9-1 .8-1.3 31.2-1.3 145.7v144.7l5.3 2.8c2.8 1.6 5.4 3.1 5.7 3.5.3.3 2.3 1.5 4.5 2.6 3.6 1.8 26 14.3 29.5 16.5.8.6 3.1 1.8 5 2.8 1.9 1 5.9 3.3 8.8 5 2.9 1.8 5.5 3.2 5.7 3.2.3 0 2.6 1.3 5.2 2.9 8 4.9 15.7 9.2 18.6 10.4 1.5.6 2.7 1.5 2.7 1.9 0 .4.4.8 1 .8.8 0 12 6.2 26 14.4 2.5 1.5 6.4 3.6 8.8 4.7 2.3 1.1 4.2 2.4 4.2 2.9 0 .6.7 1 1.5 1s3.9 1.6 6.9 3.5c3 1.9 5.8 3.5 6.1 3.5.4 0 4.3 2.2 8.8 4.8 4.5 2.7 8.9 5.1 9.7 5.5.8.4 3.3 1.8 5.5 3 9.8 5.7 12.3 7.1 16.5 9.5 8.7 4.8 23.5 13.2 25 14.2.8.5 3.9 2.2 6.8 3.7 2.8 1.5 5.2 3.1 5.2 3.5 0 .4.7.8 1.5.8.9 0 4.1 1.6 7.1 3.5s5.6 3.5 5.9 3.5c.2 0 4.3 2.3 9 5.1 6.4 3.7 9.1 4.8 10.8 4.3 1.2-.4 2.4-.9 2.7-1.3.3-.3 2.7-1.7 5.5-3.1 2.7-1.4 5.6-3.1 6.3-3.7.7-.7 2.4-1.6 3.8-1.9 1.3-.3 2.4-1 2.4-1.5s.4-.9.9-.9c.7 0 18-9.6 47.6-26.5 27.4-15.6 42.9-24.3 47-26.4 2.8-1.4 5.2-2.9 5.5-3.2.3-.3 3.4-2.1 7-4.1 14.1-7.8 17.1-9.5 32.8-18.5 9-5.1 16.7-9.3 17.2-9.3.6 0 1-.4 1-.9s.8-1.1 1.8-1.4c1.6-.5 6.3-3.1 19.2-10.6 3-1.7 6.6-3.7 8-4.4 1.4-.6 2.7-1.5 3-1.9.3-.4 1.4-1.1 2.5-1.5 1.1-.4 10.7-5.7 21.3-11.8l19.2-10.9V145.2l-2.5-1.6c-1.4-.9-2.7-1.5-2.9-1.4-.2.2-1.2-.4-2.2-1.3-1.1-.9-4.8-3.2-8.4-5.1-3.6-2-12.4-6.9-19.6-11-7.2-4.1-13.7-7.8-14.5-8.2-.8-.4-2.3-1.2-3.4-1.9s-7.4-4.3-14-8-12.7-7.2-13.5-7.8c-.8-.5-4.9-2.8-9-5-4.1-2.3-10.6-6-14.5-8.2-3.8-2.3-7.2-4-7.5-4-.3.1-1.2-.4-2-1.1-.8-.7-5.1-3.3-9.5-5.6-4.4-2.4-11.3-6.3-15.3-8.7-4.1-2.4-7.5-4.3-7.8-4.3-.2 0-3.8-2-8-4.5-4.1-2.5-8-4.5-8.5-4.5s-.9-.5-.9-1c0-.6-.5-1-1-1-.6 0-9.5-4.8-19.8-10.6C343.4 30.2 336 26 331.5 23.6c-1.1-.6-2.2-1.3-2.5-1.6-.3-.3-2.7-1.6-5.5-3-2.7-1.3-7.2-3.9-10-5.6-2.7-1.7-8.1-4.8-12-6.9-3.8-2-7.4-4-8-4.5-2-1.5-4.1-1.7-6.2-.7z"/>
</svg>
