<svg xmlns="http://www.w3.org/2000/svg" width="773.333" height="773.333" version="1.0" viewBox="0 0 580 580">
  <path d="M228.1 175.8c-33.8 18.6-61.6 34.2-61.7 34.8-.2.5 27.4 16.8 61.2 36.3 56 32.2 61.8 35.3 64 34.2 4.4-2 122.5-70.3 122.1-70.7-.3-.3-124-68.4-124.1-68.4-.1 0-27.7 15.2-61.5 33.8z"/>
  <path d="M157 294.3v67.4l60.7 33.4c33.3 18.4 61.3 33.5 62 33.7 1.1.3 1.3-11.1 1.1-65.4l-.3-65.8-61-35.3c-33.5-19.4-61.3-35.2-61.7-35.3-.5 0-.8 30.3-.8 67.3z"/>
  <path d="m359.5 262.5-61 35.3-.3 65.6c-.1 44.3.1 65.6.8 65.6 1.1 0 120.5-65.4 122.8-67.2 1.8-1.5 1.8-134.8 0-134.7-.7 0-28.7 15.9-62.3 35.4z"/>
</svg>
