<?xml version="1.0" standalone="no"?>
<!DOCTYPE svg PUBLIC "-//W3C//DTD SVG 20010904//EN"
 "http://www.w3.org/TR/2001/REC-SVG-20010904/DTD/svg10.dtd">
<svg version="1.0" xmlns="http://www.w3.org/2000/svg"
 width="580.000000pt" height="580.000000pt" viewBox="0 0 580.000000 580.000000"
 preserveAspectRatio="xMidYMid meet">
<metadata>
Created by potrace 1.11, written by Peter Selinger 2001-2013
</metadata>
<g transform="translate(0.000000,580.000000) scale(0.100000,-0.100000)"
fill="#000000" stroke="none">
<path d="M2873 5787 c-13 -5 -23 -14 -23 -19 0 -4 -9 -8 -19 -8 -11 0 -21 -4
-23 -8 -1 -4 -39 -28 -83 -51 -44 -24 -82 -48 -83 -53 -2 -4 -7 -6 -12 -3 -4
3 -13 -2 -20 -10 -7 -8 -16 -15 -20 -15 -12 0 -314 -171 -321 -182 -3 -5 -9
-9 -13 -8 -6 1 -123 -63 -251 -138 -22 -13 -52 -28 -67 -35 -16 -6 -28 -15
-28 -19 0 -4 -4 -8 -9 -8 -7 0 -154 -80 -201 -110 -8 -5 -35 -20 -60 -32 -25
-13 -47 -26 -50 -29 -3 -3 -41 -25 -85 -49 -44 -23 -84 -46 -90 -50 -10 -8
-70 -41 -165 -93 -30 -16 -62 -35 -70 -41 -8 -6 -33 -20 -55 -31 -22 -11 -42
-22 -45 -26 -3 -3 -18 -12 -35 -21 -36 -18 -95 -51 -230 -128 -107 -62 -156
-89 -220 -123 -22 -12 -42 -24 -45 -27 -5 -5 -23 -15 -130 -73 -30 -16 -61
-34 -67 -39 -10 -8 -13 -312 -13 -1457 l0 -1447 53 -28 c28 -16 54 -31 57 -35
3 -3 23 -15 45 -26 36 -18 260 -143 295 -165 8 -6 31 -18 50 -28 19 -10 59
-33 88 -50 29 -18 55 -32 57 -32 3 0 26 -13 52 -29 80 -49 157 -92 186 -104
15 -6 27 -15 27 -19 0 -4 4 -8 10 -8 8 0 120 -62 260 -144 25 -15 64 -36 88
-47 23 -11 42 -24 42 -29 0 -6 7 -10 15 -10 8 0 39 -16 69 -35 30 -19 58 -35
61 -35 4 0 43 -22 88 -48 45 -27 89 -51 97 -55 8 -4 33 -18 55 -30 98 -57 123
-71 165 -95 87 -48 235 -132 250 -142 8 -5 39 -22 68 -37 28 -15 52 -31 52
-35 0 -4 7 -8 15 -8 9 0 41 -16 71 -35 30 -19 56 -35 59 -35 2 0 43 -23 90
-51 64 -37 91 -48 108 -43 12 4 24 9 27 13 3 3 27 17 55 31 27 14 56 31 63 37
7 7 24 16 38 19 13 3 24 10 24 15 0 5 4 9 9 9 7 0 180 96 476 265 274 156 429
243 470 264 28 14 52 29 55 32 3 3 34 21 70 41 141 78 171 95 328 185 90 51
167 93 172 93 6 0 10 4 10 9 0 5 8 11 18 14 16 5 63 31 192 106 30 17 66 37
80 44 14 6 27 15 30 19 3 4 14 11 25 15 11 4 107 57 213 118 l192 109 0 1447
0 1447 -25 16 c-14 9 -27 15 -29 14 -2 -2 -12 4 -22 13 -11 9 -48 32 -84 51
-36 20 -124 69 -196 110 -72 41 -137 78 -145 82 -8 4 -23 12 -34 19 -11 7 -74
43 -140 80 -66 37 -127 72 -135 78 -8 5 -49 28 -90 50 -41 23 -106 60 -145 82
-38 23 -72 40 -75 40 -3 -1 -12 4 -20 11 -8 7 -51 33 -95 56 -44 24 -113 63
-153 87 -41 24 -75 43 -78 43 -2 0 -38 20 -80 45 -41 25 -80 45 -85 45 -5 0
-9 5 -9 10 0 6 -5 10 -10 10 -6 0 -95 48 -198 106 -178 102 -252 144 -297 168
-11 6 -22 13 -25 16 -3 3 -27 16 -55 30 -27 13 -72 39 -100 56 -27 17 -81 48
-120 69 -38 20 -74 40 -80 45 -20 15 -41 17 -62 7z"/>
</g>
</svg>
